<?xml version="1.0" encoding="UTF-8"?>
<svg version="1.1" xmlns="http://www.w3.org/2000/svg" width="256" height="256">
<path d="M0 0 C10.32193274 6.52356465 13.18671906 16.35829386 16.625 27.4375 C17.13985636 29.04670199 17.65647366 30.65534158 18.17480469 32.26342773 C19.2084763 35.48059567 20.23099527 38.70096184 21.24365234 41.92480469 C22.5461828 46.06651136 23.88550244 50.19474056 25.23828125 54.3203125 C25.97193746 56.56751799 26.70505265 58.81490021 27.4375 61.0625 C27.94011353 62.60248657 27.94011353 62.60248657 28.45288086 64.17358398 C28.75202393 65.10759033 29.05116699 66.04159668 29.359375 67.00390625 C29.6181543 67.80642822 29.87693359 68.6089502 30.14355469 69.43579102 C30.6875 71.5 30.6875 71.5 30.6875 74.5 C31.51720306 74.49111755 32.34690613 74.48223511 33.20175171 74.4730835 C41.05700008 74.39262155 48.91210816 74.33187601 56.7676754 74.29275131 C60.80542085 74.27195996 64.8428231 74.24379927 68.88037109 74.19824219 C72.78373162 74.15447954 76.686764 74.13079948 80.5903511 74.12049103 C82.07257877 74.11315375 83.5547904 74.09882699 85.03687668 74.07707977 C94.59640028 73.94250811 103.42429839 74.1814756 111.125 80.5 C111.640625 81.16 112.15625 81.82 112.6875 82.5 C113.491875 83.49 113.491875 83.49 114.3125 84.5 C118.51462247 90.61217815 118.34789269 96.20995078 117.6875 103.5 C114.89059672 115.8514252 102.66774374 122.0075216 92.91308594 128.57446289 C87.03628946 132.53608409 81.40336941 136.6902185 75.84375 141.08203125 C73.51826235 142.86356201 71.19690351 144.54966239 68.78125 146.19921875 C68.13003174 146.64692627 67.47881348 147.09463379 66.80786133 147.5559082 C65.54725111 148.41621855 64.27909911 149.26561074 63.00268555 150.10229492 C61.08429425 151.37185006 61.08429425 151.37185006 58.6875 153.5 C58.6875 157.26819846 59.15994236 159.42579851 60.32397461 162.93945312 C60.68112045 164.02738159 61.0382663 165.11531006 61.40623474 166.23620605 C61.9921212 167.99100281 61.9921212 167.99100281 62.58984375 169.78125 C62.98700089 170.98688599 63.38415802 172.19252197 63.79335022 173.43469238 C64.84917159 176.63701333 65.90992014 179.83761093 66.97332764 183.03741455 C68.46999369 187.54479463 69.95770797 192.05513675 71.44593811 196.56530762 C72.23850233 198.96548515 73.03306797 201.3650029 73.82981873 203.76379395 C74.19011673 204.85172241 74.55041473 205.93965088 74.92163086 207.06054688 C75.23917831 208.0166687 75.55672577 208.97279053 75.88389587 209.95788574 C78.11964343 217.03043 79.29296783 224.74559679 76.1875 231.75 C72.72196717 237.74376853 67.28059217 242.39139845 60.6875 244.5 C48.86537943 246.0885452 41.75693225 241.91353391 32.64111328 235.00634766 C30.41416134 233.29456031 28.19992566 231.56744465 25.98828125 229.8359375 C21.73180538 226.50970985 17.37254554 223.35898349 12.9465332 220.26367188 C9.7063063 217.98446205 6.55050993 215.63062292 3.4375 213.1796875 C2.71957275 212.62031494 2.00164551 212.06094238 1.26196289 211.48461914 C-0.13417174 210.39217928 -1.52093398 209.28762502 -2.89672852 208.16967773 C-3.53022217 207.67669189 -4.16371582 207.18370605 -4.81640625 206.67578125 C-5.37142822 206.23145752 -5.9264502 205.78713379 -6.49829102 205.3293457 C-9.11627799 204.13256172 -10.60726185 204.6416749 -13.3125 205.5 C-15.36845464 206.64967505 -15.36845464 206.64967505 -17.2890625 208.16796875 C-18.03269043 208.72460205 -18.77631836 209.28123535 -19.54248047 209.85473633 C-20.33283691 210.45954834 -21.12319336 211.06436035 -21.9375 211.6875 C-23.6404964 212.96631711 -25.34362522 214.24495788 -27.046875 215.5234375 C-28.35301758 216.51102051 -28.35301758 216.51102051 -29.68554688 217.51855469 C-39.24799383 224.73127026 -48.88095374 231.87169817 -58.6875 238.75 C-59.66460937 239.43578125 -60.64171875 240.1215625 -61.6484375 240.828125 C-68.09699659 244.87502132 -73.82216799 245.26073684 -81.3125 244.5 C-87.95722914 242.72657567 -92.48617959 238.0533353 -96.3125 232.5 C-100.59207317 223.24332548 -98.07038339 214.14158957 -94.953125 204.91015625 C-94.60747498 203.84437851 -94.26182495 202.77860077 -93.90570068 201.68052673 C-92.80632155 198.30271632 -91.68486396 194.93273372 -90.5625 191.5625 C-89.82405014 189.30581926 -89.08705831 187.04866087 -88.3515625 184.79101562 C-85.04930123 174.67937838 -81.67871006 164.5904895 -78.3125 154.5 C-85.53335811 148.52239041 -93.04462668 143.10071853 -100.71875 137.7265625 C-135.46698959 113.38189808 -135.46698959 113.38189808 -138.3125 103.5 C-139.17090526 96.92164427 -139.3000306 91.14371718 -135.625 85.4375 C-131.17113147 79.75855807 -126.41639092 76.18754154 -119.3125 74.5 C-114.09158788 74.09130041 -108.88775892 74.14987761 -103.65625 74.20703125 C-102.1431114 74.2126351 -100.62996731 74.21690146 -99.11682129 74.21989441 C-95.15804693 74.23128123 -91.19960926 74.26069421 -87.2409668 74.29400635 C-83.19194084 74.32484114 -79.14285983 74.33842824 -75.09375 74.35351562 C-67.16651315 74.38557078 -59.2395486 74.43669118 -51.3125 74.5 C-51.06032715 73.26789795 -50.8081543 72.0357959 -50.54833984 70.76635742 C-49.22237161 64.8140061 -47.3912029 59.04459949 -45.5390625 53.23828125 C-44.99153824 51.51414253 -44.99153824 51.51414253 -44.43295288 49.75517273 C-43.66351276 47.33829159 -42.89187786 44.9221082 -42.11816406 42.5065918 C-40.93882855 38.81665681 -39.77390405 35.1223648 -38.609375 31.42773438 C-37.8576516 29.07263535 -37.10507641 26.71780801 -36.3515625 24.36328125 C-35.83416 22.7131176 -35.83416 22.7131176 -35.30630493 21.02961731 C-33.01516404 13.94457968 -30.70892245 8.15426737 -24.875 3.25 C-24.31941406 2.77046875 -23.76382813 2.2909375 -23.19140625 1.796875 C-16.58108666 -2.76575723 -7.32496988 -3.23328749 0 0 Z M-12.3125 20.5 C-12.52690231 21.18301178 -12.74130463 21.86602356 -12.96220398 22.56973267 C-15.00346367 29.07076812 -17.04739026 35.57095992 -19.09416485 42.070261 C-20.14582467 45.41000206 -21.19652352 48.75003853 -22.24487305 52.09082031 C-23.45579784 55.94952328 -24.67117672 59.80681151 -25.88671875 63.6640625 C-26.25464035 64.83860992 -26.62256195 66.01315735 -27.00163269 67.22329712 C-28.0853952 70.65562859 -29.19515298 74.07846729 -30.3125 77.5 C-30.50993931 78.12587761 -30.70737862 78.75175522 -30.91080093 79.39659882 C-31.51634057 81.30792042 -32.14632066 83.21144312 -32.77661133 85.11474609 C-33.14273026 86.24286713 -33.50884918 87.37098816 -33.88606262 88.53329468 C-35.58632104 92.06949317 -36.92086719 93.52864586 -40.3125 95.5 C-42.9657076 95.89493944 -45.20827686 96.06513169 -47.85668945 96.04589844 C-48.9696917 96.06140495 -48.9696917 96.06140495 -50.10517883 96.07722473 C-52.54560239 96.10660557 -54.98519489 96.10815084 -57.42578125 96.109375 C-59.1225899 96.12435992 -60.81938397 96.14108772 -62.51615906 96.15948486 C-66.97295814 96.20313596 -71.42956048 96.22315242 -75.88653564 96.23822021 C-80.43814721 96.25779944 -84.98954654 96.29976852 -89.54101562 96.33984375 C-98.46477825 96.4151215 -107.38849332 96.46542767 -116.3125 96.5 C-116.8075 97.49 -116.8075 97.49 -117.3125 98.5 C-113.84092441 102.28312724 -109.88701974 105.038378 -105.6875 107.9375 C-104.15300708 109.00819972 -102.61917423 110.07984594 -101.0859375 111.15234375 C-99.90209473 111.97968018 -99.90209473 111.97968018 -98.69433594 112.82373047 C-94.87381636 115.51250532 -91.09337996 118.25589951 -87.3125 121 C-80.54392786 125.90823027 -73.73484568 130.7546539 -66.88085938 135.54296875 C-56.73269879 142.65960242 -56.73269879 142.65960242 -55.3125 145.5 C-54.44587723 154.20733006 -57.34047108 161.65002026 -60.16015625 169.74609375 C-60.65720144 171.20769892 -61.1528195 172.66979011 -61.64707947 174.13233948 C-62.94298018 177.95771065 -64.25375549 181.77779153 -65.56915283 185.59649658 C-67.68098927 191.73142701 -69.7756328 197.8721553 -71.85937309 204.01667976 C-72.58986595 206.16072867 -73.33023491 208.30118532 -74.07154846 210.44151306 C-74.51688965 211.74661207 -74.9618905 213.05182728 -75.40649414 214.35717773 C-75.99606651 216.0685215 -75.99606651 216.0685215 -76.59754944 217.81443787 C-77.61551694 220.4458507 -77.61551694 220.4458507 -76.3125 222.5 C-72.26856321 221.90559001 -69.45188861 219.67897339 -66.25 217.3125 C-65.64639648 216.87397705 -65.04279297 216.4354541 -64.42089844 215.98364258 C-62.37919559 214.49654925 -60.34525869 212.99929348 -58.3125 211.5 C-57.21349365 210.69127441 -57.21349365 210.69127441 -56.09228516 209.86621094 C-52.94286614 207.54827075 -49.79499848 205.22824185 -46.64892578 202.90576172 C-40.98930786 198.72888422 -35.31782432 194.5690238 -29.625 190.4375 C-28.90731445 189.91373779 -28.18962891 189.38997559 -27.45019531 188.8503418 C-25.41802057 187.3794638 -23.37092094 185.93387222 -21.3125 184.5 C-20.62462402 184.01160645 -19.93674805 183.52321289 -19.22802734 183.02001953 C-15.16815725 180.27847653 -12.37266175 178.6261002 -7.3125 179.5 C0.90421223 183.25168211 8.19375681 189.80516843 15.375 195.25390625 C20.52528505 199.15081378 25.7621336 202.92476616 31.0144043 206.68261719 C34.72263655 209.33981436 38.39879775 212.02518819 42.01953125 214.80078125 C42.70200928 215.31890381 43.3844873 215.83702637 44.08764648 216.37084961 C45.3725348 217.34948689 46.64988747 218.338125 47.91821289 219.33813477 C49.81235217 220.81830429 49.81235217 220.81830429 52.6875 222.5 C54.84047416 222.17998797 54.84047416 222.17998797 56.6875 221.5 C55.16967879 216.79876298 53.6498047 212.09819516 52.12854004 207.39807129 C51.5852085 205.71817307 51.04248226 204.03807895 50.50036621 202.35778809 C47.62341256 193.44090667 44.72471625 184.53543244 41.6640625 175.6796875 C41.19828876 174.32246826 40.73262823 172.96521015 40.26708984 171.60791016 C39.40431961 169.094029 38.52487386 166.58824159 37.63525391 164.08349609 C33.25666548 151.33115121 33.25666548 151.33115121 34.6875 145.5 C36.7421875 142.78125 36.7421875 142.78125 39.6875 140.5 C40.48269043 139.85998047 40.48269043 139.85998047 41.29394531 139.20703125 C43.10641117 137.76532052 44.95202896 136.37915515 46.8125 135 C47.50408203 134.48373047 48.19566406 133.96746094 48.90820312 133.43554688 C55.01998568 128.91293663 61.28718656 124.63433868 67.58691406 120.37939453 C73.70971579 116.22454685 79.6549379 111.87274167 85.52539062 107.36914062 C88.16206411 105.35318985 90.68194503 103.50317642 93.5703125 101.8515625 C95.99935903 100.61355813 95.99935903 100.61355813 96.6875 97.5 C95.0256626 95.8381626 93.01586171 96.37059728 90.79556274 96.35655212 C89.7467543 96.3573452 89.7467543 96.3573452 88.67675781 96.3581543 C87.94337189 96.35467987 87.20998596 96.35120544 86.45437622 96.34762573 C84.85616062 96.34025545 83.2579347 96.33491688 81.65970612 96.33133507 C79.12939594 96.32418703 76.59928167 96.30853217 74.06903076 96.28999329 C66.87287117 96.23745241 59.67681591 96.18955869 52.48046875 96.17407227 C48.08301234 96.16398695 43.68604383 96.13464486 39.28878021 96.09275246 C37.61271608 96.08044101 35.93658302 96.07532147 34.26047516 96.07755089 C31.91172844 96.07990559 29.56437821 96.05772553 27.21582031 96.0300293 C26.17915726 96.03993141 26.17915726 96.03993141 25.12155151 96.05003357 C20.39608269 95.9586781 17.98405103 94.86517093 14.6875 91.5 C13.56878436 89.1023084 12.73077001 86.96669374 11.9609375 84.46484375 C11.61631973 83.41584648 11.61631973 83.41584648 11.26473999 82.34565735 C10.51448302 80.04782799 9.78836468 77.74313891 9.0625 75.4375 C8.54592514 73.83843732 8.02800257 72.23980943 7.50878906 70.64160156 C6.15432267 66.45528206 4.82194205 62.26230712 3.49768066 58.06634521 C2.68829667 55.50252356 1.87537968 52.93984657 1.06152344 50.37744141 C-2.09616195 40.42850165 -5.22030015 30.4694882 -8.3125 20.5 C-9.6325 20.5 -10.9525 20.5 -12.3125 20.5 Z " fill="#4A4A4A" transform="translate(138.3125,6.5)"/>
</svg>
